<svg width="30" height="30" viewBox="0 0 30 30" fill="none" xmlns="http://www.w3.org/2000/svg">
<g clip-path="url(#clip0_1047_33)">
<path d="M15 30C23.2843 30 30 23.2843 30 15C30 6.71573 23.2843 0 15 0C6.71573 0 0 6.71573 0 15C0 23.2843 6.71573 30 15 30Z" fill="#0029FF"/>
<path d="M8.5 16C9.32843 16 10 15.3284 10 14.5C10 13.6716 9.32843 13 8.5 13C7.67157 13 7 13.6716 7 14.5C7 15.3284 7.67157 16 8.5 16Z" fill="white"/>
<path opacity="0.1" d="M9.5 12C10.3284 12 11 11.3284 11 10.5C11 9.67157 10.3284 9 9.5 9C8.67157 9 8 9.67157 8 10.5C8 11.3284 8.67157 12 9.5 12Z" fill="white"/>
<path opacity="0.1" d="M9.5 20C10.3284 20 11 19.3284 11 18.5C11 17.6716 10.3284 17 9.5 17C8.67157 17 8 17.6716 8 18.5C8 19.3284 8.67157 20 9.5 20Z" fill="white"/>
<path opacity="0.1" d="M21.5 20C22.3284 20 23 19.3284 23 18.5C23 17.6716 22.3284 17 21.5 17C20.6716 17 20 17.6716 20 18.5C20 19.3284 20.6716 20 21.5 20Z" fill="white"/>
<path opacity="0.1" d="M21.5 12C22.3284 12 23 11.3284 23 10.5C23 9.67157 22.3284 9 21.5 9C20.6716 9 20 9.67157 20 10.5C20 11.3284 20.6716 12 21.5 12Z" fill="white"/>
<path d="M12.5 23C13.3284 23 14 22.3284 14 21.5C14 20.6716 13.3284 20 12.5 20C11.6716 20 11 20.6716 11 21.5C11 22.3284 11.6716 23 12.5 23Z" fill="white"/>
<path d="M18.5 23C19.3284 23 20 22.3284 20 21.5C20 20.6716 19.3284 20 18.5 20C17.6716 20 17 20.6716 17 21.5C17 22.3284 17.6716 23 18.5 23Z" fill="white"/>
<path d="M22.5 16C23.3284 16 24 15.3284 24 14.5C24 13.6716 23.3284 13 22.5 13C21.6716 13 21 13.6716 21 14.5C21 15.3284 21.6716 16 22.5 16Z" fill="white"/>
<path d="M15.5 16C16.3284 16 17 15.3284 17 14.5C17 13.6716 16.3284 13 15.5 13C14.6716 13 14 13.6716 14 14.5C14 15.3284 14.6716 16 15.5 16Z" fill="white"/>
<path d="M18.5 9C19.3284 9 20 8.32843 20 7.5C20 6.67157 19.3284 6 18.5 6C17.6716 6 17 6.67157 17 7.5C17 8.32843 17.6716 9 18.5 9Z" fill="white"/>
<path d="M12.5 9C13.3284 9 14 8.32843 14 7.5C14 6.67157 13.3284 6 12.5 6C11.6716 6 11 6.67157 11 7.5C11 8.32843 11.6716 9 12.5 9Z" fill="white"/>
<path d="M8.5 14.5H15.5L18.5 21.5H12.5" stroke="white"/>
<path d="M12.5 7.5H18.5" stroke="white"/>
</g>
<defs>
<clipPath id="clip0_1047_33">
<rect width="30" height="30" fill="white"/>
</clipPath>
</defs>
</svg>
